<?xml version="1.0" ?><svg height="105px" version="1.1" viewBox="0 0 105 105" width="105px" xmlns="http://www.w3.org/2000/svg" xmlns:sketch="http://www.bohemiancoding.com/sketch/ns" xmlns:xlink="http://www.w3.org/1999/xlink"><title/><defs/><g fill="none" fill-rule="evenodd" id="Imoticon" stroke="none" stroke-width="1"><path d="M52,94 C75.1959606,94 94,75.1959606 94,52 C94,28.8040394 75.1959606,10 52,10 C28.8040394,10 10,28.8040394 10,52 C10,75.1959606 28.8040394,94 52,94 Z M77.7919922,35 C77.7919922,35 56.9999998,41.6391602 57,45.8769531 C57.0000003,50.1147461 74.2329102,57.7275391 74.2329102,57.7275391 C74.2329102,57.7275391 65.012207,48.8164062 65.012207,45.8769531 C65.0122069,42.9375 77.7919922,35 77.7919922,35 Z M26,35 C26,35 46.7919924,41.6391602 46.7919922,45.8769531 C46.7919919,50.1147461 29.559082,57.7275391 29.559082,57.7275391 C29.559082,57.7275391 38.7797852,48.8164062 38.7797852,45.8769531 C38.7797853,42.9375 26,35 26,35 Z M33.7772111,23.9498529 C37.1695062,20.911963 39.7483383,19.1948243 40.8081055,19.1948242 C42.9887695,19.194824 39.2353516,26.3808594 35.2456055,28.0424805 C31.2558596,29.7041018 26.7211914,28.5039062 26.1240234,27.3271484 C25.8170693,26.7222757 30.1892405,27.1629754 33.7772111,23.9498529 Z M68.7816989,23.9498529 C65.3894037,20.911963 62.8105716,19.1948243 61.7508045,19.1948242 C59.5701404,19.194824 63.3235584,26.3808594 67.3133045,28.0424805 C71.3030503,29.7041018 75.8377185,28.5039062 76.4348865,27.3271484 C76.7418406,26.7222757 72.3696694,27.1629754 68.7816989,23.9498529 Z M52,55.2157099 C65.1167635,55.2157099 75.75,64.8613327 75.75,76.7598128 C75.75,78.0271129 65.1167635,73.8667216 52,73.8667216 C38.8832365,73.8667216 28.25,78.0271129 28.25,76.7598128 C28.25,64.8613327 38.8832365,55.2157099 52,55.2157099 Z M52,55.2157099" fill="#ff3535" id="imoticon_31"/></g></svg>