<?xml version="1.0" ?><svg height="105px" version="1.1" viewBox="0 0 105 105" width="105px" xmlns="http://www.w3.org/2000/svg" xmlns:sketch="http://www.bohemiancoding.com/sketch/ns" xmlns:xlink="http://www.w3.org/1999/xlink"><title/><defs/><g fill="none" fill-rule="evenodd" id="Imoticon" stroke="none" stroke-width="1"><path d="M52,94 C75.1959606,94 94,75.1959606 94,52 C94,28.8040394 75.1959606,10 52,10 C28.8040394,10 10,28.8040394 10,52 C10,75.1959606 28.8040394,94 52,94 Z M52,76.7665772 C46.4893799,76.7665772 41.0000005,82.2460691 41,80.405493 C40.9999997,78.5649168 43.0841064,70.6708739 52,70.6708739 C60.9158936,70.6708739 63,78.6569578 63,80.405493 C62.9999998,82.1540281 57.5106201,76.7665771 52,76.7665772 Z M77.7919922,46 C77.7919922,46 56.9999998,52.6391602 57,56.8769531 C57.0000003,61.1147461 74.2329102,68.7275391 74.2329102,68.7275391 C74.2329102,68.7275391 65.012207,59.8164062 65.012207,56.8769531 C65.0122069,53.9375 77.7919922,46 77.7919922,46 Z M26,46 C26,46 46.7919924,52.6391602 46.7919922,56.8769531 C46.7919919,61.1147461 29.559082,68.7275391 29.559082,68.7275391 C29.559082,68.7275391 38.7797852,59.8164062 38.7797852,56.8769531 C38.7797853,53.9375 26,46 26,46 Z M20.7485352,40.6030278 C20.7485347,42.2851572 25.2844239,43.2880859 29.0751953,42.2739257 C32.8659668,41.2597657 39.5478514,34.1069336 39.2802734,32.8583984 C39.0126953,31.6098633 31.7701883,37.0549104 29.0751953,38.2644042 C26.3802024,39.4738982 20.7485357,38.9208984 20.7485352,40.6030278 Z M83.2880721,40.6030278 C83.2880726,42.2851572 78.7521833,43.2880859 74.9614119,42.2739257 C71.1706404,41.2597657 64.4887558,34.1069336 64.7563339,32.8583984 C65.0239119,31.6098633 72.2664189,37.0549104 74.9614119,38.2644042 C77.6564049,39.4738982 83.2880715,38.9208984 83.2880721,40.6030278 Z M83.2880721,40.6030278" fill="#ff8300" id="imoticon_21"/></g></svg>